<?xml version="1.0" standalone="no"?>
<!DOCTYPE svg PUBLIC "-//W3C//DTD SVG 20010904//EN"
 "http://www.w3.org/TR/2001/REC-SVG-20010904/DTD/svg10.dtd">
<svg version="1.0" xmlns="http://www.w3.org/2000/svg"
 width="32.000000pt" height="32.000000pt" viewBox="0 0 32.000000 32.000000"
 preserveAspectRatio="xMidYMid meet">

<g transform="translate(0.000000,32.000000) scale(0.100000,-0.100000)"
fill="#000000" stroke="none">
<path d="M187 252 c-55 -55 -67 -73 -67 -100 0 -28 3 -32 28 -32 21 0 45 17
100 73 l72 73 -28 27 c-15 15 -30 27 -33 27 -2 0 -35 -30 -72 -68z"/>
<path d="M20 160 l0 -140 140 0 140 0 0 60 c0 53 -2 60 -20 60 -17 0 -20 -7
-20 -40 l0 -40 -100 0 -100 0 0 100 0 100 40 0 c33 0 40 3 40 20 0 18 -7 20
-60 20 l-60 0 0 -140z"/>
</g>
</svg>
